<svg xmlns="http://www.w3.org/2000/svg" width="24" height="24" viewBox="0 0 24 24" fill="none" stroke="#0ea5e9" stroke-width="2" stroke-linecap="round" stroke-linejoin="round" class="lucide lucide-person-standing"><path d="M12 5c.67 0 1.35.09 2 .26"/><path d="M12 5c-.67 0-1.35.09-2 .26C7.2 6.15 5 8.16 5 10.5V13H2v7h20v-7h-3v-2.5c0-2.34-2.2-4.35-5-5.24Z"/><path d="M8 13v-2.5c0-.8.4-1.5 1-1.96"/><path d="M16 13v-2.5c0-.8-.4-1.5-1-1.96"/><circle cx="12" cy="4" r="1"/><path d="m10.5 13-1.5 6"/><path d="m13.5 13 1.5 6"/></svg>